{
  "accessors": [
    {
      "bufferView": 1,
      "componentType": 5126,
      "count": 6454,
      "max": [
        0.542015016078949,
        0.4477330148220062,
        0.6163430213928223
      ],
      "min": [
        -0.542015016078949,
        -1.1541340351104736,
        -1.5574699640274048
      ],
      "type": "VEC3"
    },
    {
      "bufferView": 1,
      "byteOffset": 77448,
      "componentType": 5126,
      "count": 6454,
      "max": [
        0.9994867444038391,
        0.9898371696472168,
        0.9953839778900146
      ],
      "min": [
        -0.9994867444038391,
        -0.9986535906791687,
        -0.9973312020301819
      ],
      "type": "VEC3"
    },
    {
      "bufferView": 0,
      "componentType": 5125,
      "count": 9678,
      "type": "SCALAR"
    }
  ],
  "asset": {
    "extras": {
      "author": "AaronJOlson (https://sketchfab.com/aaolson817)",
      "license": "CC-BY-4.0 (http://creativecommons.org/licenses/by/4.0/)",
      "source": "https://sketchfab.com/3d-models/female-head-base-mesh-24a9f520b6e2403b9114e41895b38224",
      "title": "Female Head Base Mesh"
    },
    "generator": "Sketchfab-12.68.0",
    "version": "2.0"
  },
  "bufferViews": [
    {
      "buffer": 0,
      "byteLength": 38712,
      "name": "floatBufferViews",
      "target": 34963
    },
    {
      "buffer": 0,
      "byteLength": 154896,
      "byteOffset": 38712,
      "byteStride": 12,
      "name": "floatBufferViews",
      "target": 34962
    }
  ],
  "buffers": [
    {
      "byteLength": 193608,
      "uri": "scene.bin"
    }
  ],
  "materials": [
    {
      "doubleSided": true,
      "name": "material_0",
      "pbrMetallicRoughness": {
        "metallicFactor": 0.0,
        "roughnessFactor": 0.6
      }
    }
  ],
  "meshes": [
    {
      "name": "Object_0",
      "primitives": [
        {
          "attributes": {
            "NORMAL": 1,
            "POSITION": 0
          },
          "indices": 2,
          "material": 0,
          "mode": 4
        }
      ]
    }
  ],
  "nodes": [
    {
      "children": [
        1
      ],
      "matrix": [
        1.0,
        0.0,
        0.0,
        0.0,
        0.0,
        2.220446049250313e-16,
        -1.0,
        0.0,
        0.0,
        1.0,
        2.220446049250313e-16,
        0.0,
        0.0,
        0.0,
        0.0,
        1.0
      ],
      "name": "Sketchfab_model"
    },
    {
      "children": [
        2
      ],
      "name": "a4ba7d796400460f82eb3f557af44f06.obj.cleaner.materialmerger.gles"
    },
    {
      "mesh": 0,
      "name": "Object_2"
    }
  ],
  "scene": 0,
  "scenes": [
    {
      "name": "Sketchfab_Scene",
      "nodes": [
        0
      ]
    }
  ]
}
