<svg width="164" height="58" viewBox="0 0 164 58" fill="none" xmlns="http://www.w3.org/2000/svg">
<g clip-path="url(#clip0_38_22)">
<rect opacity="0.3" width="32" height="32" rx="16" fill="white"/>
</g>
<path fill-rule="evenodd" clip-rule="evenodd" d="M21.9808 9.27979H10.0192C9.61095 9.27979 9.28 9.61074 9.28 10.019V21.9806C9.28 22.1766 9.35788 22.3647 9.49651 22.5033C9.63513 22.6419 9.82315 22.7198 10.0192 22.7198H16.457V17.5118H14.7098V15.4958H16.457V13.9838C16.3837 13.2652 16.6318 12.551 17.1346 12.0326C17.6375 11.5141 18.3439 11.2444 19.0643 11.2958C19.5874 11.2926 20.1101 11.3195 20.6301 11.3764V13.1908H19.5616C18.7149 13.1908 18.5536 13.594 18.5536 14.1787V15.4756H20.5696L20.3075 17.4916H18.5536V22.7198H21.9808C22.1768 22.7198 22.3649 22.6419 22.5035 22.5033C22.6421 22.3647 22.72 22.1766 22.72 21.9806V10.019C22.72 9.82294 22.6421 9.63492 22.5035 9.49629C22.3649 9.35766 22.1768 9.27979 21.9808 9.27979Z" fill="white"/>
<g clip-path="url(#clip1_38_22)">
<rect opacity="0.3" x="44" width="32" height="32" rx="16" fill="white"/>
</g>
<path fill-rule="evenodd" clip-rule="evenodd" d="M66.2623 9.3332H54.4043C54.1351 9.32946 53.8755 9.43283 53.6825 9.62056C53.4895 9.80829 53.379 10.065 53.3753 10.3342V22.3322C53.379 22.6014 53.4895 22.8581 53.6825 23.0458C53.8755 23.2336 54.1351 23.3369 54.4043 23.3332H66.2623C66.5315 23.3369 66.7912 23.2336 66.9842 23.0458C67.1772 22.8581 67.2876 22.6014 67.2913 22.3322V10.3342C67.2876 10.065 67.1772 9.80829 66.9842 9.62056C66.7912 9.43283 66.5315 9.32946 66.2623 9.3332ZM57.5963 21.0512H55.4963V14.7512H57.5963V21.0512ZM56.5463 13.8692C55.9432 13.8692 55.4543 13.3803 55.4543 12.7772C55.4543 12.1741 55.9432 11.6852 56.5463 11.6852C56.966 11.6376 57.3758 11.8347 57.6006 12.1923C57.8254 12.5498 57.8254 13.0046 57.6006 13.3621C57.3758 13.7197 56.966 13.9168 56.5463 13.8692ZM65.1703 21.0512H63.0703V17.6702C63.0703 16.8232 62.7693 16.2702 62.0063 16.2702C61.5227 16.2737 61.0925 16.5782 60.9283 17.0332C60.8736 17.1977 60.8498 17.371 60.8583 17.5442V21.0442H58.7583C58.7583 21.0442 58.7583 15.3182 58.7583 14.7442H60.8583V15.6332C61.2471 14.9586 61.9772 14.5545 62.7553 14.5832C64.1553 14.5832 65.1703 15.4862 65.1703 17.4252V21.0512Z" fill="white"/>
<g clip-path="url(#clip2_38_22)">
<rect opacity="0.3" x="88" width="32" height="32" rx="16" fill="white"/>
</g>
<path fill-rule="evenodd" clip-rule="evenodd" d="M108.071 11.7555C107.732 11.7555 107.425 11.9602 107.295 12.274C107.165 12.5879 107.237 12.9492 107.477 13.1895C107.718 13.4297 108.079 13.5016 108.393 13.3716C108.707 13.2415 108.911 12.9352 108.911 12.5955C108.911 12.1316 108.535 11.7555 108.071 11.7555V11.7555ZM111.291 13.4495C111.278 12.8687 111.169 12.2941 110.969 11.7485C110.791 11.2817 110.514 10.859 110.157 10.5095C109.811 10.1507 109.387 9.87542 108.918 9.7045C108.374 9.49881 107.799 9.38754 107.217 9.3755C106.475 9.3335 106.237 9.3335 104.333 9.3335C102.429 9.3335 102.191 9.3335 101.449 9.3755C100.868 9.38754 100.292 9.49881 99.7483 9.7045C99.2805 9.87715 98.8572 10.1522 98.5093 10.5095C98.1505 10.8561 97.8753 11.2798 97.7043 11.7485C97.4987 12.2926 97.3874 12.8679 97.3753 13.4495C97.3333 14.1915 97.3333 14.4295 97.3333 16.3335C97.3333 18.2375 97.3333 18.4755 97.3753 19.2175C97.3874 19.7991 97.4987 20.3744 97.7043 20.9185C97.8753 21.3872 98.1505 21.8109 98.5093 22.1575C98.8572 22.5148 99.2805 22.7898 99.7483 22.9625C100.292 23.1682 100.868 23.2794 101.449 23.2915C102.191 23.3335 102.429 23.3335 104.333 23.3335C106.237 23.3335 106.475 23.3335 107.217 23.2915C107.799 23.2794 108.374 23.1682 108.918 22.9625C109.387 22.7916 109.811 22.5163 110.157 22.1575C110.516 21.8093 110.793 21.3862 110.969 20.9185C111.169 20.3729 111.278 19.7983 111.291 19.2175C111.291 18.4755 111.333 18.2375 111.333 16.3335C111.333 14.4295 111.333 14.1915 111.291 13.4495ZM110.031 19.1335C110.026 19.5778 109.946 20.0181 109.793 20.4355C109.682 20.7401 109.502 21.0154 109.268 21.2405C109.041 21.4719 108.767 21.651 108.463 21.7655C108.046 21.9179 107.606 21.9984 107.161 22.0035C106.461 22.0385 106.202 22.0455 104.361 22.0455C102.52 22.0455 102.261 22.0455 101.561 22.0035C101.1 22.0121 100.641 21.9411 100.203 21.7935C99.9134 21.6731 99.6513 21.4944 99.4333 21.2685C99.201 21.0436 99.0237 20.7681 98.9153 20.4635C98.7444 20.0401 98.6497 19.5899 98.6353 19.1335C98.6353 18.4335 98.5933 18.1745 98.5933 16.3335C98.5933 14.4925 98.5933 14.2335 98.6353 13.5335C98.6385 13.0792 98.7214 12.6291 98.8803 12.2035C99.0036 11.908 99.1927 11.6447 99.4333 11.4335C99.646 11.1928 99.9088 11.0017 100.203 10.8735C100.63 10.7195 101.08 10.6391 101.533 10.6355C102.233 10.6355 102.492 10.5935 104.333 10.5935C106.174 10.5935 106.433 10.5935 107.133 10.6355C107.578 10.6406 108.018 10.7211 108.435 10.8735C108.753 10.9916 109.039 11.1835 109.268 11.4335C109.498 11.6485 109.677 11.9114 109.793 12.2035C109.949 12.6297 110.029 13.0797 110.031 13.5335C110.066 14.2335 110.073 14.4925 110.073 16.3335C110.073 18.1745 110.066 18.4335 110.031 19.1335ZM104.333 12.7425C102.351 12.7464 100.747 14.3558 100.749 16.3382C100.752 18.3205 102.36 19.9258 104.343 19.9245C106.325 19.9232 107.931 18.3158 107.931 16.3335C107.933 15.3793 107.555 14.4638 106.879 13.7897C106.204 13.1157 105.288 12.7388 104.333 12.7425ZM104.333 18.6645C103.046 18.6645 102.002 17.6209 102.002 16.3335C102.002 15.0461 103.046 14.0025 104.333 14.0025C105.621 14.0025 106.664 15.0461 106.664 16.3335C106.664 16.9517 106.419 17.5446 105.982 17.9818C105.544 18.4189 104.952 18.6645 104.333 18.6645Z" fill="white"/>
<g clip-path="url(#clip3_38_22)">
<rect opacity="0.3" x="132" width="32" height="32" rx="16" fill="white"/>
</g>
<path fill-rule="evenodd" clip-rule="evenodd" d="M155.333 11.9704C154.807 12.1999 154.251 12.3516 153.681 12.4208C154.282 12.06 154.732 11.4924 154.948 10.8234C154.384 11.1612 153.766 11.3992 153.121 11.5271C152.235 10.5611 150.812 10.319 149.659 10.9382C148.506 11.5574 147.915 12.8815 148.221 14.1589C145.913 14.0415 143.763 12.9442 142.306 11.14C142.054 11.5835 141.921 12.0857 141.921 12.5967C141.92 13.5606 142.398 14.4614 143.195 14.9963C142.739 14.9838 142.292 14.8607 141.893 14.6374V14.6726C141.9 16.0434 142.866 17.22 144.203 17.4874C143.954 17.5638 143.694 17.6041 143.433 17.6071C143.253 17.6049 143.072 17.5885 142.894 17.5578C143.273 18.7303 144.349 19.5326 145.575 19.5563C144.565 20.3552 143.318 20.7912 142.033 20.7948C141.799 20.7956 141.566 20.7815 141.333 20.7526C142.645 21.6043 144.175 22.0564 145.736 22.0545C147.914 22.0772 150.008 21.2192 151.55 19.6735C153.092 18.1278 153.95 16.024 153.933 13.8352C153.933 13.7156 153.933 13.5889 153.933 13.4623C154.483 13.0505 154.956 12.5456 155.333 11.9704V11.9704Z" fill="white"/>
<path d="M1.335 52V41.35H9.375V52H8.325V42.28H2.385V52H1.335ZM14.833 52.15C14.273 52.15 13.753 52.045 13.273 51.835C12.803 51.615 12.393 51.32 12.043 50.95C11.703 50.57 11.438 50.14 11.248 49.66C11.058 49.17 10.963 48.655 10.963 48.115C10.963 47.555 11.058 47.035 11.248 46.555C11.438 46.065 11.708 45.635 12.058 45.265C12.408 44.885 12.818 44.59 13.288 44.38C13.768 44.16 14.288 44.05 14.848 44.05C15.408 44.05 15.923 44.16 16.393 44.38C16.863 44.59 17.273 44.885 17.623 45.265C17.973 45.635 18.243 46.065 18.433 46.555C18.623 47.035 18.718 47.555 18.718 48.115C18.718 48.655 18.623 49.17 18.433 49.66C18.243 50.14 17.973 50.57 17.623 50.95C17.283 51.32 16.873 51.615 16.393 51.835C15.923 52.045 15.403 52.15 14.833 52.15ZM11.998 48.13C11.998 48.71 12.123 49.24 12.373 49.72C12.633 50.19 12.978 50.565 13.408 50.845C13.838 51.115 14.313 51.25 14.833 51.25C15.353 51.25 15.828 51.11 16.258 50.83C16.688 50.55 17.033 50.17 17.293 49.69C17.553 49.2 17.683 48.67 17.683 48.1C17.683 47.52 17.553 46.99 17.293 46.51C17.033 46.03 16.688 45.65 16.258 45.37C15.828 45.09 15.353 44.95 14.833 44.95C14.313 44.95 13.838 45.095 13.408 45.385C12.988 45.675 12.648 46.06 12.388 46.54C12.128 47.01 11.998 47.54 11.998 48.13ZM19.2239 53.815V51.085H19.3589C19.5889 51.085 19.7989 51.015 19.9889 50.875C20.1789 50.735 20.3489 50.49 20.4989 50.14C20.6489 49.79 20.7689 49.31 20.8589 48.7C20.9489 48.08 21.0089 47.3 21.0389 46.36L21.1139 44.185H26.1989V51.085H27.2489V53.815H26.3339V52H20.1239V53.815H19.2239ZM20.9039 51.085H25.1789V45.1H22.0289L21.9839 46.45C21.9539 47.38 21.8889 48.16 21.7889 48.79C21.6989 49.41 21.5789 49.905 21.4289 50.275C21.2889 50.635 21.1139 50.905 20.9039 51.085ZM28.4501 52V44.185H34.7351V52H33.7151V45.1H29.4701V52H28.4501ZM36.6455 52V44.2H37.6655V50.62L42.4205 44.185H43.3355V52H42.3155V45.685L37.6355 52H36.6455ZM48.6267 52.15C48.0567 52.15 47.5317 52.045 47.0517 51.835C46.5817 51.615 46.1667 51.315 45.8067 50.935C45.4567 50.555 45.1817 50.12 44.9817 49.63C44.7917 49.14 44.6967 48.62 44.6967 48.07C44.6967 47.33 44.8617 46.655 45.1917 46.045C45.5217 45.435 45.9817 44.95 46.5717 44.59C47.1617 44.23 47.8417 44.05 48.6117 44.05C49.3417 44.05 49.9867 44.22 50.5467 44.56C51.1067 44.89 51.5217 45.34 51.7917 45.91L50.8017 46.225C50.5817 45.825 50.2717 45.515 49.8717 45.295C49.4817 45.065 49.0467 44.95 48.5667 44.95C48.0467 44.95 47.5717 45.085 47.1417 45.355C46.7117 45.625 46.3667 45.995 46.1067 46.465C45.8567 46.935 45.7317 47.47 45.7317 48.07C45.7317 48.66 45.8617 49.195 46.1217 49.675C46.3817 50.155 46.7267 50.54 47.1567 50.83C47.5867 51.11 48.0617 51.25 48.5817 51.25C48.9217 51.25 49.2467 51.19 49.5567 51.07C49.8767 50.95 50.1517 50.79 50.3817 50.59C50.6217 50.38 50.7817 50.155 50.8617 49.915L51.8667 50.215C51.7267 50.585 51.4917 50.92 51.1617 51.22C50.8417 51.51 50.4617 51.74 50.0217 51.91C49.5917 52.07 49.1267 52.15 48.6267 52.15ZM53.1241 52V44.185H54.1441V46.945H55.9141C56.8041 46.945 57.4741 47.175 57.9241 47.635C58.3841 48.085 58.6141 48.68 58.6141 49.42C58.6141 49.9 58.5141 50.335 58.3141 50.725C58.1141 51.115 57.8191 51.425 57.4291 51.655C57.0491 51.885 56.5691 52 55.9891 52H53.1241ZM54.1441 51.19H55.8541C56.2641 51.19 56.5941 51.11 56.8441 50.95C57.0941 50.78 57.2791 50.565 57.3991 50.305C57.5191 50.035 57.5791 49.745 57.5791 49.435C57.5791 49.135 57.5241 48.86 57.4141 48.61C57.3141 48.35 57.1341 48.145 56.8741 47.995C56.6241 47.835 56.2741 47.755 55.8241 47.755H54.1441V51.19ZM60.0391 52V44.2H61.0591V52H60.0391ZM62.9602 52V44.185H66.8602C67.3002 44.185 67.6702 44.28 67.9702 44.47C68.2702 44.65 68.4952 44.885 68.6452 45.175C68.8052 45.465 68.8852 45.775 68.8852 46.105C68.8852 46.525 68.7852 46.905 68.5852 47.245C68.3852 47.575 68.0952 47.825 67.7152 47.995C68.1652 48.125 68.5302 48.36 68.8102 48.7C69.0902 49.04 69.2302 49.45 69.2302 49.93C69.2302 50.35 69.1252 50.715 68.9152 51.025C68.7152 51.335 68.4352 51.575 68.0752 51.745C67.7252 51.915 67.3202 52 66.8602 52H62.9602ZM63.9352 51.265H66.8302C67.0902 51.265 67.3252 51.2 67.5352 51.07C67.7552 50.93 67.9252 50.75 68.0452 50.53C68.1752 50.31 68.2402 50.08 68.2402 49.84C68.2402 49.58 68.1802 49.345 68.0602 49.135C67.9402 48.915 67.7802 48.74 67.5802 48.61C67.3802 48.48 67.1502 48.415 66.8902 48.415H63.9352V51.265ZM63.9352 47.71H66.5902C66.8502 47.71 67.0802 47.64 67.2802 47.5C67.4802 47.36 67.6352 47.18 67.7452 46.96C67.8552 46.74 67.9102 46.51 67.9102 46.27C67.9102 45.91 67.7902 45.595 67.5502 45.325C67.3202 45.055 67.0202 44.92 66.6502 44.92H63.9352V47.71ZM70.0425 49.75C70.0425 49.26 70.1825 48.84 70.4625 48.49C70.7425 48.13 71.1275 47.855 71.6175 47.665C72.1175 47.465 72.6925 47.365 73.3425 47.365C73.7225 47.365 74.1175 47.395 74.5275 47.455C74.9375 47.515 75.3025 47.605 75.6225 47.725V47.065C75.6225 46.405 75.4275 45.88 75.0375 45.49C74.6475 45.1 74.1075 44.905 73.4175 44.905C72.9975 44.905 72.5825 44.985 72.1725 45.145C71.7725 45.295 71.3525 45.52 70.9125 45.82L70.5225 45.1C71.0325 44.75 71.5325 44.49 72.0225 44.32C72.5125 44.14 73.0125 44.05 73.5225 44.05C74.4825 44.05 75.2425 44.325 75.8025 44.875C76.3625 45.425 76.6425 46.185 76.6425 47.155V50.77C76.6425 50.91 76.6725 51.015 76.7325 51.085C76.7925 51.145 76.8875 51.18 77.0175 51.19V52C76.9075 52.01 76.8125 52.02 76.7325 52.03C76.6525 52.04 76.5925 52.04 76.5525 52.03C76.3025 52.02 76.1125 51.94 75.9825 51.79C75.8525 51.64 75.7825 51.48 75.7725 51.31L75.7575 50.74C75.4075 51.19 74.9525 51.54 74.3925 51.79C73.8325 52.03 73.2625 52.15 72.6825 52.15C72.1825 52.15 71.7275 52.045 71.3175 51.835C70.9175 51.615 70.6025 51.325 70.3725 50.965C70.1525 50.595 70.0425 50.19 70.0425 49.75ZM75.2775 50.35C75.3875 50.21 75.4725 50.075 75.5325 49.945C75.5925 49.815 75.6225 49.7 75.6225 49.6V48.46C75.2825 48.33 74.9275 48.23 74.5575 48.16C74.1975 48.09 73.8325 48.055 73.4625 48.055C72.7325 48.055 72.1425 48.2 71.6925 48.49C71.2425 48.78 71.0175 49.175 71.0175 49.675C71.0175 49.965 71.0925 50.24 71.2425 50.5C71.3925 50.75 71.6125 50.96 71.9025 51.13C72.1925 51.29 72.5325 51.37 72.9225 51.37C73.4125 51.37 73.8675 51.275 74.2875 51.085C74.7175 50.895 75.0475 50.65 75.2775 50.35ZM78.5013 52V44.2H79.5213V50.62L84.2763 44.185H85.1913V52H84.1713V45.685L79.4913 52H78.5013ZM81.8613 43.195C81.1813 43.195 80.6563 43.035 80.2863 42.715C79.9163 42.395 79.7313 41.99 79.7313 41.5H80.4813C80.4813 41.8 80.5913 42.05 80.8113 42.25C81.0413 42.45 81.3913 42.55 81.8613 42.55C82.3213 42.55 82.6563 42.455 82.8663 42.265C83.0863 42.075 83.2113 41.82 83.2413 41.5H83.9763C83.9763 41.99 83.7913 42.395 83.4213 42.715C83.0513 43.035 82.5313 43.195 81.8613 43.195ZM89.0426 52V45.1H86.2526V44.185H92.8526V45.1H90.0626V52H89.0426ZM97.286 52.15C96.726 52.15 96.206 52.045 95.726 51.835C95.246 51.615 94.831 51.32 94.481 50.95C94.131 50.57 93.856 50.135 93.656 49.645C93.466 49.155 93.371 48.63 93.371 48.07C93.371 47.34 93.536 46.67 93.866 46.06C94.206 45.45 94.671 44.965 95.261 44.605C95.851 44.235 96.521 44.05 97.271 44.05C98.041 44.05 98.711 44.235 99.281 44.605C99.861 44.975 100.316 45.465 100.646 46.075C100.976 46.675 101.141 47.335 101.141 48.055C101.141 48.135 101.141 48.215 101.141 48.295C101.141 48.365 101.136 48.42 101.126 48.46H94.436C94.486 49.02 94.641 49.52 94.901 49.96C95.171 50.39 95.516 50.735 95.936 50.995C96.366 51.245 96.831 51.37 97.331 51.37C97.841 51.37 98.321 51.24 98.771 50.98C99.231 50.72 99.551 50.38 99.731 49.96L100.616 50.2C100.456 50.57 100.211 50.905 99.881 51.205C99.551 51.505 99.161 51.74 98.711 51.91C98.271 52.07 97.796 52.15 97.286 52.15ZM94.406 47.725H100.181C100.141 47.155 99.986 46.655 99.716 46.225C99.456 45.795 99.111 45.46 98.681 45.22C98.261 44.97 97.796 44.845 97.286 44.845C96.776 44.845 96.311 44.97 95.891 45.22C95.471 45.46 95.126 45.8 94.856 46.24C94.596 46.67 94.446 47.165 94.406 47.725ZM105.775 52.15C105.205 52.15 104.68 52.045 104.2 51.835C103.73 51.615 103.315 51.315 102.955 50.935C102.605 50.555 102.33 50.12 102.13 49.63C101.94 49.14 101.845 48.62 101.845 48.07C101.845 47.33 102.01 46.655 102.34 46.045C102.67 45.435 103.13 44.95 103.72 44.59C104.31 44.23 104.99 44.05 105.76 44.05C106.49 44.05 107.135 44.22 107.695 44.56C108.255 44.89 108.67 45.34 108.94 45.91L107.95 46.225C107.73 45.825 107.42 45.515 107.02 45.295C106.63 45.065 106.195 44.95 105.715 44.95C105.195 44.95 104.72 45.085 104.29 45.355C103.86 45.625 103.515 45.995 103.255 46.465C103.005 46.935 102.88 47.47 102.88 48.07C102.88 48.66 103.01 49.195 103.27 49.675C103.53 50.155 103.875 50.54 104.305 50.83C104.735 51.11 105.21 51.25 105.73 51.25C106.07 51.25 106.395 51.19 106.705 51.07C107.025 50.95 107.3 50.79 107.53 50.59C107.77 50.38 107.93 50.155 108.01 49.915L109.015 50.215C108.875 50.585 108.64 50.92 108.31 51.22C107.99 51.51 107.61 51.74 107.17 51.91C106.74 52.07 106.275 52.15 105.775 52.15ZM110.272 52V44.185H111.292V46.945H113.317C114.207 46.945 114.877 47.175 115.327 47.635C115.787 48.085 116.017 48.68 116.017 49.42C116.017 49.9 115.917 50.335 115.717 50.725C115.517 51.115 115.222 51.425 114.832 51.655C114.452 51.885 113.972 52 113.392 52H110.272ZM111.292 51.19H113.257C113.667 51.19 113.997 51.11 114.247 50.95C114.497 50.78 114.682 50.565 114.802 50.305C114.922 50.035 114.982 49.745 114.982 49.435C114.982 49.135 114.927 48.86 114.817 48.61C114.717 48.35 114.537 48.145 114.277 47.995C114.027 47.835 113.677 47.755 113.227 47.755H111.292V51.19ZM120.76 52V44.185H121.78V47.545H126.25V44.185H127.27V52H126.25V48.46H121.78V52H120.76ZM128.56 49.75C128.56 49.26 128.7 48.84 128.98 48.49C129.26 48.13 129.645 47.855 130.135 47.665C130.635 47.465 131.21 47.365 131.86 47.365C132.24 47.365 132.635 47.395 133.045 47.455C133.455 47.515 133.82 47.605 134.14 47.725V47.065C134.14 46.405 133.945 45.88 133.555 45.49C133.165 45.1 132.625 44.905 131.935 44.905C131.515 44.905 131.1 44.985 130.69 45.145C130.29 45.295 129.87 45.52 129.43 45.82L129.04 45.1C129.55 44.75 130.05 44.49 130.54 44.32C131.03 44.14 131.53 44.05 132.04 44.05C133 44.05 133.76 44.325 134.32 44.875C134.88 45.425 135.16 46.185 135.16 47.155V50.77C135.16 50.91 135.19 51.015 135.25 51.085C135.31 51.145 135.405 51.18 135.535 51.19V52C135.425 52.01 135.33 52.02 135.25 52.03C135.17 52.04 135.11 52.04 135.07 52.03C134.82 52.02 134.63 51.94 134.5 51.79C134.37 51.64 134.3 51.48 134.29 51.31L134.275 50.74C133.925 51.19 133.47 51.54 132.91 51.79C132.35 52.03 131.78 52.15 131.2 52.15C130.7 52.15 130.245 52.045 129.835 51.835C129.435 51.615 129.12 51.325 128.89 50.965C128.67 50.595 128.56 50.19 128.56 49.75ZM133.795 50.35C133.905 50.21 133.99 50.075 134.05 49.945C134.11 49.815 134.14 49.7 134.14 49.6V48.46C133.8 48.33 133.445 48.23 133.075 48.16C132.715 48.09 132.35 48.055 131.98 48.055C131.25 48.055 130.66 48.2 130.21 48.49C129.76 48.78 129.535 49.175 129.535 49.675C129.535 49.965 129.61 50.24 129.76 50.5C129.91 50.75 130.13 50.96 130.42 51.13C130.71 51.29 131.05 51.37 131.44 51.37C131.93 51.37 132.385 51.275 132.805 51.085C133.235 50.895 133.565 50.65 133.795 50.35ZM140.512 52V44.185H141.532V47.545H146.002V44.185H147.022V52H146.002V48.46H141.532V52H140.512ZM148.312 49.75C148.312 49.26 148.452 48.84 148.732 48.49C149.012 48.13 149.397 47.855 149.887 47.665C150.387 47.465 150.962 47.365 151.612 47.365C151.992 47.365 152.387 47.395 152.797 47.455C153.207 47.515 153.572 47.605 153.892 47.725V47.065C153.892 46.405 153.697 45.88 153.307 45.49C152.917 45.1 152.377 44.905 151.687 44.905C151.267 44.905 150.852 44.985 150.442 45.145C150.042 45.295 149.622 45.52 149.182 45.82L148.792 45.1C149.302 44.75 149.802 44.49 150.292 44.32C150.782 44.14 151.282 44.05 151.792 44.05C152.752 44.05 153.512 44.325 154.072 44.875C154.632 45.425 154.912 46.185 154.912 47.155V50.77C154.912 50.91 154.942 51.015 155.002 51.085C155.062 51.145 155.157 51.18 155.287 51.19V52C155.177 52.01 155.082 52.02 155.002 52.03C154.922 52.04 154.862 52.04 154.822 52.03C154.572 52.02 154.382 51.94 154.252 51.79C154.122 51.64 154.052 51.48 154.042 51.31L154.027 50.74C153.677 51.19 153.222 51.54 152.662 51.79C152.102 52.03 151.532 52.15 150.952 52.15C150.452 52.15 149.997 52.045 149.587 51.835C149.187 51.615 148.872 51.325 148.642 50.965C148.422 50.595 148.312 50.19 148.312 49.75ZM153.547 50.35C153.657 50.21 153.742 50.075 153.802 49.945C153.862 49.815 153.892 49.7 153.892 49.6V48.46C153.552 48.33 153.197 48.23 152.827 48.16C152.467 48.09 152.102 48.055 151.732 48.055C151.002 48.055 150.412 48.2 149.962 48.49C149.512 48.78 149.287 49.175 149.287 49.675C149.287 49.965 149.362 50.24 149.512 50.5C149.662 50.75 149.882 50.96 150.172 51.13C150.462 51.29 150.802 51.37 151.192 51.37C151.682 51.37 152.137 51.275 152.557 51.085C152.987 50.895 153.317 50.65 153.547 50.35ZM160.176 52.15C159.606 52.15 159.081 52.045 158.601 51.835C158.131 51.615 157.716 51.315 157.356 50.935C157.006 50.555 156.731 50.12 156.531 49.63C156.341 49.14 156.246 48.62 156.246 48.07C156.246 47.33 156.411 46.655 156.741 46.045C157.071 45.435 157.531 44.95 158.121 44.59C158.711 44.23 159.391 44.05 160.161 44.05C160.891 44.05 161.536 44.22 162.096 44.56C162.656 44.89 163.071 45.34 163.341 45.91L162.351 46.225C162.131 45.825 161.821 45.515 161.421 45.295C161.031 45.065 160.596 44.95 160.116 44.95C159.596 44.95 159.121 45.085 158.691 45.355C158.261 45.625 157.916 45.995 157.656 46.465C157.406 46.935 157.281 47.47 157.281 48.07C157.281 48.66 157.411 49.195 157.671 49.675C157.931 50.155 158.276 50.54 158.706 50.83C159.136 51.11 159.611 51.25 160.131 51.25C160.471 51.25 160.796 51.19 161.106 51.07C161.426 50.95 161.701 50.79 161.931 50.59C162.171 50.38 162.331 50.155 162.411 49.915L163.416 50.215C163.276 50.585 163.041 50.92 162.711 51.22C162.391 51.51 162.011 51.74 161.571 51.91C161.141 52.07 160.676 52.15 160.176 52.15Z" fill="white"/>
<defs>
<clipPath id="clip0_38_22">
<rect width="32" height="32" fill="white"/>
</clipPath>
<clipPath id="clip1_38_22">
<rect width="32" height="32" fill="white" transform="translate(44)"/>
</clipPath>
<clipPath id="clip2_38_22">
<rect width="32" height="32" fill="white" transform="translate(88)"/>
</clipPath>
<clipPath id="clip3_38_22">
<rect width="32" height="32" fill="white" transform="translate(132)"/>
</clipPath>
</defs>
</svg>
