<svg width="24" height="24" viewBox="0 0 24 24" fill="none" xmlns="http://www.w3.org/2000/svg">
<path d="M7 12V12C7 10.8954 7.89543 10 9 10V10M7 12C5 12 3 10 3 8M7 12V14.5M17 12V12C17 10.8954 16.1046 10 15 10V10M17 12C19 12 21 10 21 8M17 12V14.5M17 14.5H21M17 14.5V17M7 14.5H3M7 14.5V17M7 17V17C7 18.1046 7.89543 19 9 19H15C16.1046 19 17 18.1046 17 17V17M7 17C5 17 4 18 4 20M17 17C19 17 20 18 20 20M15 10V7C15 5.89543 14.1046 5 13 5M15 10H9M9 10V7C9 5.89543 9.89543 5 11 5M11 5H13M11 5L9 3M13 5L15 3" stroke="white" stroke-linecap="round" stroke-linejoin="round"/>
</svg>
