<svg width="400" height="401" viewBox="0 0 400 401" fill="none" xmlns="http://www.w3.org/2000/svg">
<g clip-path="url(#clip0_9_51)">
<rect width="400" height="401" fill="white"/>
<rect x="-778" y="-320" width="6312" height="6329" fill="#111111"/>
<g filter="url(#filter0_d_9_51)">
<path d="M138.72 48.032L148.468 50.2625L151.267 38.032H138.72V48.032ZM123.168 116V126H131.138L132.916 118.23L123.168 116ZM96.672 116L86.8738 117.999L88.5059 126H96.672V116ZM88.8 77.408L98.5982 75.4094L79.0018 75.4094L88.8 77.408ZM80.928 116V126H89.0941L90.7262 117.999L80.928 116ZM54.432 116L44.6839 118.23L46.4617 126H54.432V116ZM38.88 48.032V38.032H26.3334L29.1319 50.2625L38.88 48.032ZM61.824 48.032L71.7226 46.6116L70.4915 38.032H61.824V48.032ZM67.968 90.848L58.0694 92.2684L77.7441 92.9523L67.968 90.848ZM77.184 48.032V38.032H69.1074L67.4079 45.9277L77.184 48.032ZM100.416 48.032L110.192 45.9277L108.493 38.032H100.416V48.032ZM109.632 90.848L99.8559 92.9523L119.531 92.2684L109.632 90.848ZM115.776 48.032V38.032H107.109L105.877 46.6116L115.776 48.032ZM128.972 45.8015L113.42 113.77L132.916 118.23L148.468 50.2625L128.972 45.8015ZM123.168 106H96.672V126H123.168V106ZM106.47 114.001L98.5982 75.4094L79.0018 79.4066L86.8738 117.999L106.47 114.001ZM79.0018 75.4094L71.1298 114.001L90.7262 117.999L98.5982 79.4066L79.0018 75.4094ZM80.928 106H54.432V126H80.928V106ZM64.1801 113.77L48.6281 45.8015L29.1319 50.2625L44.6839 118.23L64.1801 113.77ZM38.88 58.032H61.824V38.032H38.88V58.032ZM51.9254 49.4524L58.0694 92.2684L77.8666 89.4276L71.7226 46.6116L51.9254 49.4524ZM77.7441 92.9523L86.9601 50.1363L67.4079 45.9277L58.1919 88.7437L77.7441 92.9523ZM77.184 58.032H100.416V38.032H77.184V58.032ZM90.6399 50.1363L99.8559 92.9523L119.408 88.7437L110.192 45.9277L90.6399 50.1363ZM119.531 92.2684L125.675 49.4524L105.877 46.6116L99.7334 89.4276L119.531 92.2684ZM115.776 58.032H138.72V38.032H115.776V58.032ZM161.819 112.16L156.891 120.862L156.913 120.874L156.936 120.887L161.819 112.16ZM149.147 99.68L140.535 104.764L140.535 104.764L149.147 99.68ZM161.819 51.392L166.666 60.1385L166.684 60.1287L166.701 60.1188L161.819 51.392ZM197.051 51.392L192.123 60.0937L192.163 60.1163L192.203 60.1385L197.051 51.392ZM209.627 63.776L200.97 68.7823L200.992 68.8211L201.015 68.8598L209.627 63.776ZM209.627 99.68L201.015 94.5962L200.992 94.6349L200.97 94.6737L209.627 99.68ZM196.955 112.16L192.072 103.433L192.049 103.446L192.027 103.458L196.955 112.16ZM189.275 92.768L196.867 99.2759L196.905 99.2319L196.942 99.1874L189.275 92.768ZM189.275 70.688L181.607 77.1074L181.644 77.1519L181.682 77.1959L189.275 70.688ZM169.595 70.688L177.187 77.1959L177.225 77.1519L177.262 77.1074L169.595 70.688ZM169.595 92.768L161.927 99.1874L161.964 99.2319L162.002 99.2759L169.595 92.768ZM179.483 106.672C174.723 106.672 170.526 105.573 166.701 103.433L156.936 120.887C163.863 124.763 171.442 126.672 179.483 126.672V106.672ZM166.746 103.458C162.974 101.322 160.014 98.4172 157.758 94.5962L140.535 104.764C144.551 111.567 150.039 116.982 156.891 120.862L166.746 103.458ZM157.758 94.5962C155.603 90.9454 154.443 86.7419 154.443 81.728H134.443C134.443 90.0261 136.418 97.7906 140.535 104.764L157.758 94.5962ZM154.443 81.728C154.443 76.7141 155.603 72.5106 157.758 68.8598L140.535 58.6922C136.418 65.6654 134.443 73.4299 134.443 81.728H154.443ZM157.758 68.8598C160.003 65.0569 162.938 62.2046 166.666 60.1385L156.971 42.6455C150.075 46.4674 144.562 51.8711 140.535 58.6922L157.758 68.8598ZM166.701 60.1188C170.526 57.9788 174.723 56.88 179.483 56.88V36.88C171.442 36.88 163.863 38.7892 156.936 42.6652L166.701 60.1188ZM179.483 56.88C184.242 56.88 188.388 57.9785 192.123 60.0937L201.978 42.6903C195.089 38.7895 187.523 36.88 179.483 36.88V56.88ZM192.203 60.1385C195.913 62.1944 198.795 65.022 200.97 68.7823L218.283 58.7697C214.314 51.906 208.812 46.4776 201.898 42.6455L192.203 60.1385ZM201.015 68.8598C203.17 72.5106 204.331 76.7141 204.331 81.728H224.331C224.331 73.4299 222.355 65.6654 218.238 58.6922L201.015 68.8598ZM204.331 81.728C204.331 86.7419 203.17 90.9454 201.015 94.5962L218.238 104.764C222.355 97.7906 224.331 90.0261 224.331 81.728H204.331ZM200.97 94.6737C198.802 98.4223 195.884 101.3 192.072 103.433L201.837 120.887C208.777 117.004 214.307 111.562 218.283 104.686L200.97 94.6737ZM192.027 103.458C188.276 105.582 184.16 106.672 179.483 106.672V126.672C187.477 126.672 195.009 124.754 201.882 120.862L192.027 103.458ZM179.483 106.8C186.006 106.8 192.294 104.611 196.867 99.2759L181.682 86.2601C181.554 86.4088 181.458 86.4763 181.291 86.5452C181.079 86.6324 180.54 86.8 179.483 86.8V106.8ZM196.942 99.1874C201.138 94.1754 202.731 88.0034 202.731 81.728H182.731C182.731 84.6686 182.019 85.8566 181.607 86.3486L196.942 99.1874ZM202.731 81.728C202.731 75.4425 201.163 69.1922 196.867 64.1801L181.682 77.1959C181.994 77.5598 182.731 78.6695 182.731 81.728H202.731ZM196.942 64.2686C192.394 58.8367 186.086 56.56 179.483 56.56V76.56C180.512 76.56 181.024 76.7266 181.214 76.8066C181.361 76.8685 181.462 76.9338 181.607 77.1074L196.942 64.2686ZM179.483 56.56C172.871 56.56 166.505 58.8008 161.927 64.2686L177.262 77.1074C177.391 76.9534 177.485 76.8878 177.647 76.8201C177.856 76.7329 178.402 76.56 179.483 76.56V56.56ZM162.002 64.1801C157.706 69.1922 156.139 75.4425 156.139 81.728H176.139C176.139 78.6695 176.875 77.5598 177.187 77.1959L162.002 64.1801ZM156.139 81.728C156.139 88.0034 157.731 94.1754 161.927 99.1874L177.262 86.3486C176.85 85.8566 176.139 84.6686 176.139 81.728H156.139ZM162.002 99.2759C166.605 104.646 172.95 106.8 179.483 106.8V86.8C178.374 86.8 177.801 86.6264 177.57 86.5322C177.387 86.4575 177.298 86.3895 177.187 86.2601L162.002 99.2759ZM256.195 116L247.336 120.639L250.143 126H256.195V116ZM243.427 91.616L252.286 86.9772L249.478 81.616H243.427V91.616ZM243.331 91.616V81.616H233.331V91.616H243.331ZM243.331 116V126H253.331V116H243.331ZM222.019 116H212.019V126H222.019V116ZM222.019 48.032V38.032H212.019V48.032H222.019ZM267.811 51.008L263.28 59.9228L263.339 59.9526L263.398 59.9815L267.811 51.008ZM276.547 58.976L267.844 63.902L267.9 64L267.957 64.0966L276.547 58.976ZM275.683 82.4L267.595 76.5183L267.56 76.5668L267.525 76.6157L275.683 82.4ZM264.835 89.984L261.75 80.4718L250.078 84.257L256.14 94.9246L264.835 89.984ZM279.619 116V126H296.803L288.313 111.059L279.619 116ZM243.331 77.408H233.331V87.408H243.331V77.408ZM256.387 76.064L262.972 83.5898L263.101 83.4768L263.226 83.3594L256.387 76.064ZM256.291 67.424L249.22 74.4951L249.327 74.6022L249.437 74.706L256.291 67.424ZM243.331 65.888V55.888H233.331V65.888H243.331ZM265.054 111.361L252.286 86.9772L234.568 96.2548L247.336 120.639L265.054 111.361ZM243.427 81.616H243.331V101.616H243.427V81.616ZM233.331 91.616V116H253.331V91.616H233.331ZM243.331 106H222.019V126H243.331V106ZM232.019 116V48.032H212.019V116H232.019ZM222.019 58.032H253.699V38.032H222.019V58.032ZM253.699 58.032C258.023 58.032 261.094 58.8118 263.28 59.9228L272.341 42.0931C266.719 39.2362 260.382 38.032 253.699 38.032V58.032ZM263.398 59.9815C265.715 61.1214 267.028 62.4598 267.844 63.902L285.249 54.05C282.226 48.7082 277.714 44.7346 272.224 42.0345L263.398 59.9815ZM267.957 64.0966C268.936 65.738 269.523 67.7149 269.523 70.304H289.523C289.523 64.4451 288.126 58.87 285.136 53.8553L267.957 64.0966ZM269.523 70.304C269.523 72.8338 268.855 74.786 267.595 76.5183L283.77 88.2817C287.63 82.974 289.523 76.8622 289.523 70.304H269.523ZM267.525 76.6157C266.46 78.1178 264.765 79.4937 261.75 80.4718L267.92 99.4962C274.376 97.4023 279.913 93.7222 283.84 88.1843L267.525 76.6157ZM256.14 94.9246L270.925 120.941L288.313 111.059L273.529 85.0434L256.14 94.9246ZM279.619 106H256.195V126H279.619V106ZM243.331 87.408H251.779V67.408H243.331V87.408ZM251.779 87.408C255.065 87.408 259.397 86.7181 262.972 83.5898L249.802 68.5382C250.562 67.8734 251.281 67.5846 251.667 67.472C252.021 67.3686 252.106 67.408 251.779 67.408V87.408ZM263.226 83.3594C266.984 79.8362 267.923 75.2285 267.923 71.648H247.923C247.923 71.8124 247.898 71.5187 248.094 70.9548C248.31 70.3344 248.754 69.5127 249.547 68.7686L263.226 83.3594ZM267.923 71.648C267.923 67.693 266.635 63.4277 263.144 60.142L249.437 74.706C248.88 74.1817 248.448 73.5288 248.187 72.852C247.94 72.2131 247.923 71.7588 247.923 71.648H267.923ZM263.362 60.3529C259.855 56.8464 255.411 55.888 251.779 55.888V75.888C251.936 75.888 251.679 75.9111 251.172 75.7385C250.618 75.5498 249.892 75.1675 249.22 74.4951L263.362 60.3529ZM251.779 55.888H243.331V75.888H251.779V55.888ZM233.331 65.888V77.408H253.331V65.888H233.331ZM327.419 116L319.115 121.572L322.087 126H327.419V116ZM307.643 86.528L315.947 80.9561L297.643 53.678V86.528H307.643ZM307.643 116V126H317.643V116H307.643ZM286.331 116H276.331V126H286.331V116ZM286.331 48.032V38.032H276.331V48.032H286.331ZM307.643 48.032H317.643V38.032H307.643V48.032ZM307.643 76.64H297.643V109.082L315.908 82.2699L307.643 76.64ZM327.131 48.032V38.032H321.844L318.867 42.4021L327.131 48.032ZM351.227 48.032L359.344 53.8738L370.746 38.032H351.227V48.032ZM327.803 80.576L319.687 74.7342L315.527 80.5143L319.629 86.3359L327.803 80.576ZM352.763 116V126H372.042L360.938 110.24L352.763 116ZM335.723 110.428L315.947 80.9561L299.339 92.0999L319.115 121.572L335.723 110.428ZM297.643 86.528V116H317.643V86.528H297.643ZM307.643 106H286.331V126H307.643V106ZM296.331 116V48.032H276.331V116H296.331ZM286.331 58.032H307.643V38.032H286.331V58.032ZM297.643 48.032V76.64H317.643V48.032H297.643ZM315.908 82.2699L335.396 53.6619L318.867 42.4021L299.379 71.0101L315.908 82.2699ZM327.131 58.032H351.227V38.032H327.131V58.032ZM343.111 42.1902L319.687 74.7342L335.92 86.4178L359.344 53.8738L343.111 42.1902ZM319.629 86.3359L344.589 121.76L360.938 110.24L335.978 74.8161L319.629 86.3359ZM352.763 106H327.419V126H352.763V106Z" fill="white"/>
</g>
<g filter="url(#filter1_d_9_51)">
<path d="M145.72 179.032L155.468 181.262L158.267 169.032H145.72V179.032ZM130.168 247V257H138.138L139.916 249.23L130.168 247ZM103.672 247L93.8738 248.999L95.5059 257H103.672V247ZM95.8 208.408L105.598 206.409L86.0018 206.409L95.8 208.408ZM87.928 247V257H96.0941L97.7262 248.999L87.928 247ZM61.432 247L51.6839 249.23L53.4617 257H61.432V247ZM45.88 179.032V169.032H33.3334L36.1319 181.262L45.88 179.032ZM68.824 179.032L78.7226 177.612L77.4915 169.032H68.824V179.032ZM74.968 221.848L65.0694 223.268L84.7441 223.952L74.968 221.848ZM84.184 179.032V169.032H76.1074L74.4079 176.928L84.184 179.032ZM107.416 179.032L117.192 176.928L115.493 169.032H107.416V179.032ZM116.632 221.848L106.856 223.952L126.531 223.268L116.632 221.848ZM122.776 179.032V169.032H114.109L112.877 177.612L122.776 179.032ZM135.972 176.802L120.42 244.77L139.916 249.23L155.468 181.262L135.972 176.802ZM130.168 237H103.672V257H130.168V237ZM113.47 245.001L105.598 206.409L86.0018 210.407L93.8738 248.999L113.47 245.001ZM86.0018 206.409L78.1298 245.001L97.7262 248.999L105.598 210.407L86.0018 206.409ZM87.928 237H61.432V257H87.928V237ZM71.1801 244.77L55.6281 176.802L36.1319 181.262L51.6839 249.23L71.1801 244.77ZM45.88 189.032H68.824V169.032H45.88V189.032ZM58.9254 180.452L65.0694 223.268L84.8666 220.428L78.7226 177.612L58.9254 180.452ZM84.7441 223.952L93.9601 181.136L74.4079 176.928L65.1919 219.744L84.7441 223.952ZM84.184 189.032H107.416V169.032H84.184V189.032ZM97.6399 181.136L106.856 223.952L126.408 219.744L117.192 176.928L97.6399 181.136ZM126.531 223.268L132.675 180.452L112.877 177.612L106.733 220.428L126.531 223.268ZM122.776 189.032H145.72V169.032H122.776V189.032ZM168.819 243.16L163.891 251.862L163.913 251.874L163.936 251.887L168.819 243.16ZM156.147 230.68L147.535 235.764L147.535 235.764L156.147 230.68ZM168.819 182.392L173.666 191.139L173.684 191.129L173.701 191.119L168.819 182.392ZM204.051 182.392L199.123 191.094L199.163 191.116L199.203 191.139L204.051 182.392ZM216.627 194.776L207.97 199.782L207.992 199.821L208.015 199.86L216.627 194.776ZM216.627 230.68L208.015 225.596L207.992 225.635L207.97 225.674L216.627 230.68ZM203.955 243.16L199.072 234.433L199.049 234.446L199.027 234.458L203.955 243.16ZM196.275 223.768L203.867 230.276L203.905 230.232L203.942 230.187L196.275 223.768ZM196.275 201.688L188.607 208.107L188.644 208.152L188.682 208.196L196.275 201.688ZM176.595 201.688L184.187 208.196L184.225 208.152L184.262 208.107L176.595 201.688ZM176.595 223.768L168.927 230.187L168.964 230.232L169.002 230.276L176.595 223.768ZM186.483 237.672C181.723 237.672 177.526 236.573 173.701 234.433L163.936 251.887C170.863 255.763 178.442 257.672 186.483 257.672V237.672ZM173.746 234.458C169.974 232.322 167.014 229.417 164.758 225.596L147.535 235.764C151.551 242.567 157.039 247.982 163.891 251.862L173.746 234.458ZM164.758 225.596C162.603 221.945 161.443 217.742 161.443 212.728H141.443C141.443 221.026 143.418 228.791 147.535 235.764L164.758 225.596ZM161.443 212.728C161.443 207.714 162.603 203.511 164.758 199.86L147.535 189.692C143.418 196.665 141.443 204.43 141.443 212.728H161.443ZM164.758 199.86C167.003 196.057 169.938 193.205 173.666 191.139L163.971 173.645C157.075 177.467 151.562 182.871 147.535 189.692L164.758 199.86ZM173.701 191.119C177.526 188.979 181.723 187.88 186.483 187.88V167.88C178.442 167.88 170.863 169.789 163.936 173.665L173.701 191.119ZM186.483 187.88C191.242 187.88 195.388 188.979 199.123 191.094L208.978 173.69C202.089 169.789 194.523 167.88 186.483 167.88V187.88ZM199.203 191.139C202.913 193.194 205.795 196.022 207.97 199.782L225.283 189.77C221.314 182.906 215.812 177.478 208.898 173.645L199.203 191.139ZM208.015 199.86C210.17 203.511 211.331 207.714 211.331 212.728H231.331C231.331 204.43 229.355 196.665 225.238 189.692L208.015 199.86ZM211.331 212.728C211.331 217.742 210.17 221.945 208.015 225.596L225.238 235.764C229.355 228.791 231.331 221.026 231.331 212.728H211.331ZM207.97 225.674C205.802 229.422 202.884 232.3 199.072 234.433L208.837 251.887C215.777 248.004 221.307 242.562 225.283 235.686L207.97 225.674ZM199.027 234.458C195.276 236.582 191.16 237.672 186.483 237.672V257.672C194.477 257.672 202.009 255.754 208.882 251.862L199.027 234.458ZM186.483 237.8C193.006 237.8 199.294 235.611 203.867 230.276L188.682 217.26C188.554 217.409 188.458 217.476 188.291 217.545C188.079 217.632 187.54 217.8 186.483 217.8V237.8ZM203.942 230.187C208.138 225.175 209.731 219.003 209.731 212.728H189.731C189.731 215.669 189.019 216.857 188.607 217.349L203.942 230.187ZM209.731 212.728C209.731 206.442 208.163 200.192 203.867 195.18L188.682 208.196C188.994 208.56 189.731 209.67 189.731 212.728H209.731ZM203.942 195.269C199.394 189.837 193.086 187.56 186.483 187.56V207.56C187.512 207.56 188.024 207.727 188.214 207.807C188.361 207.868 188.462 207.934 188.607 208.107L203.942 195.269ZM186.483 187.56C179.871 187.56 173.505 189.801 168.927 195.269L184.262 208.107C184.391 207.953 184.485 207.888 184.647 207.82C184.856 207.733 185.402 207.56 186.483 207.56V187.56ZM169.002 195.18C164.706 200.192 163.139 206.442 163.139 212.728H183.139C183.139 209.67 183.875 208.56 184.187 208.196L169.002 195.18ZM163.139 212.728C163.139 219.003 164.731 225.175 168.927 230.187L184.262 217.349C183.85 216.857 183.139 215.669 183.139 212.728H163.139ZM169.002 230.276C173.605 235.646 179.95 237.8 186.483 237.8V217.8C185.374 217.8 184.801 217.626 184.57 217.532C184.387 217.457 184.298 217.389 184.187 217.26L169.002 230.276ZM263.195 247L254.336 251.639L257.143 257H263.195V247ZM250.427 222.616L259.286 217.977L256.478 212.616H250.427V222.616ZM250.331 222.616V212.616H240.331V222.616H250.331ZM250.331 247V257H260.331V247H250.331ZM229.019 247H219.019V257H229.019V247ZM229.019 179.032V169.032H219.019V179.032H229.019ZM274.811 182.008L270.28 190.923L270.339 190.953L270.398 190.981L274.811 182.008ZM283.547 189.976L274.844 194.902L274.9 195L274.957 195.097L283.547 189.976ZM282.683 213.4L274.595 207.518L274.56 207.567L274.525 207.616L282.683 213.4ZM271.835 220.984L268.75 211.472L257.078 215.257L263.14 225.925L271.835 220.984ZM286.619 247V257H303.803L295.313 242.059L286.619 247ZM250.331 208.408H240.331V218.408H250.331V208.408ZM263.387 207.064L269.972 214.59L270.101 214.477L270.226 214.359L263.387 207.064ZM263.291 198.424L256.22 205.495L256.327 205.602L256.437 205.706L263.291 198.424ZM250.331 196.888V186.888H240.331V196.888H250.331ZM272.054 242.361L259.286 217.977L241.568 227.255L254.336 251.639L272.054 242.361ZM250.427 212.616H250.331V232.616H250.427V212.616ZM240.331 222.616V247H260.331V222.616H240.331ZM250.331 237H229.019V257H250.331V237ZM239.019 247V179.032H219.019V247H239.019ZM229.019 189.032H260.699V169.032H229.019V189.032ZM260.699 189.032C265.023 189.032 268.094 189.812 270.28 190.923L279.341 173.093C273.719 170.236 267.382 169.032 260.699 169.032V189.032ZM270.398 190.981C272.715 192.121 274.028 193.46 274.844 194.902L292.249 185.05C289.226 179.708 284.714 175.735 279.224 173.034L270.398 190.981ZM274.957 195.097C275.936 196.738 276.523 198.715 276.523 201.304H296.523C296.523 195.445 295.126 189.87 292.136 184.855L274.957 195.097ZM276.523 201.304C276.523 203.834 275.855 205.786 274.595 207.518L290.77 219.282C294.63 213.974 296.523 207.862 296.523 201.304H276.523ZM274.525 207.616C273.46 209.118 271.765 210.494 268.75 211.472L274.92 230.496C281.376 228.402 286.913 224.722 290.84 219.184L274.525 207.616ZM263.14 225.925L277.925 251.941L295.313 242.059L280.529 216.043L263.14 225.925ZM286.619 237H263.195V257H286.619V237ZM250.331 218.408H258.779V198.408H250.331V218.408ZM258.779 218.408C262.065 218.408 266.397 217.718 269.972 214.59L256.802 199.538C257.562 198.873 258.281 198.585 258.667 198.472C259.021 198.369 259.106 198.408 258.779 198.408V218.408ZM270.226 214.359C273.984 210.836 274.923 206.229 274.923 202.648H254.923C254.923 202.812 254.898 202.519 255.094 201.955C255.31 201.334 255.754 200.513 256.547 199.769L270.226 214.359ZM274.923 202.648C274.923 198.693 273.635 194.428 270.144 191.142L256.437 205.706C255.88 205.182 255.448 204.529 255.187 203.852C254.94 203.213 254.923 202.759 254.923 202.648H274.923ZM270.362 191.353C266.855 187.846 262.411 186.888 258.779 186.888V206.888C258.936 206.888 258.679 206.911 258.172 206.738C257.618 206.55 256.892 206.167 256.22 205.495L270.362 191.353ZM258.779 186.888H250.331V206.888H258.779V186.888ZM240.331 196.888V208.408H260.331V196.888H240.331ZM334.419 247L326.115 252.572L329.087 257H334.419V247ZM314.643 217.528L322.947 211.956L304.643 184.678V217.528H314.643ZM314.643 247V257H324.643V247H314.643ZM293.331 247H283.331V257H293.331V247ZM293.331 179.032V169.032H283.331V179.032H293.331ZM314.643 179.032H324.643V169.032H314.643V179.032ZM314.643 207.64H304.643V240.082L322.908 213.27L314.643 207.64ZM334.131 179.032V169.032H328.844L325.867 173.402L334.131 179.032ZM358.227 179.032L366.344 184.874L377.746 169.032H358.227V179.032ZM334.803 211.576L326.687 205.734L322.527 211.514L326.629 217.336L334.803 211.576ZM359.763 247V257H379.042L367.938 241.24L359.763 247ZM342.723 241.428L322.947 211.956L306.339 223.1L326.115 252.572L342.723 241.428ZM304.643 217.528V247H324.643V217.528H304.643ZM314.643 237H293.331V257H314.643V237ZM303.331 247V179.032H283.331V247H303.331ZM293.331 189.032H314.643V169.032H293.331V189.032ZM304.643 179.032V207.64H324.643V179.032H304.643ZM322.908 213.27L342.396 184.662L325.867 173.402L306.379 202.01L322.908 213.27ZM334.131 189.032H358.227V169.032H334.131V189.032ZM350.111 173.19L326.687 205.734L342.92 217.418L366.344 184.874L350.111 173.19ZM326.629 217.336L351.589 252.76L367.938 241.24L342.978 205.816L326.629 217.336ZM359.763 237H334.419V257H359.763V237Z" fill="white"/>
</g>
<path d="M145.72 291.032L130.168 359H103.672L95.8 320.408L87.928 359H61.432L45.88 291.032H68.824L74.968 333.848L84.184 291.032H107.416L116.632 333.848L122.776 291.032H145.72ZM186.483 359.672C180.083 359.672 174.195 358.168 168.819 355.16C163.507 352.152 159.283 347.992 156.147 342.68C153.011 337.368 151.443 331.384 151.443 324.728C151.443 318.072 153.011 312.088 156.147 306.776C159.283 301.464 163.507 297.336 168.819 294.392C174.195 291.384 180.083 289.88 186.483 289.88C192.883 289.88 198.739 291.384 204.051 294.392C209.363 297.336 213.555 301.464 216.627 306.776C219.763 312.088 221.331 318.072 221.331 324.728C221.331 331.384 219.763 337.368 216.627 342.68C213.555 347.992 209.331 352.152 203.955 355.16C198.643 358.168 192.819 359.672 186.483 359.672ZM186.483 339.8C190.707 339.8 193.971 338.456 196.275 335.768C198.579 333.016 199.731 329.336 199.731 324.728C199.731 320.056 198.579 316.376 196.275 313.688C193.971 310.936 190.707 309.56 186.483 309.56C182.195 309.56 178.899 310.936 176.595 313.688C174.291 316.376 173.139 320.056 173.139 324.728C173.139 329.336 174.291 333.016 176.595 335.768C178.899 338.456 182.195 339.8 186.483 339.8ZM263.195 359L250.427 334.616H250.331V359H229.019V291.032H260.699C266.203 291.032 270.907 292.024 274.811 294.008C278.715 295.928 281.627 298.584 283.547 301.976C285.531 305.304 286.523 309.08 286.523 313.304C286.523 317.848 285.243 321.88 282.683 325.4C280.187 328.92 276.571 331.448 271.835 332.984L286.619 359H263.195ZM250.331 320.408H258.779C260.827 320.408 262.363 319.96 263.387 319.064C264.411 318.104 264.923 316.632 264.923 314.648C264.923 312.856 264.379 311.448 263.291 310.424C262.267 309.4 260.763 308.888 258.779 308.888H250.331V320.408ZM334.419 359L314.643 329.528V359H293.331V291.032H314.643V319.64L334.131 291.032H358.227L334.803 323.576L359.763 359H334.419Z" fill="white"/>
</g>
<defs>
<filter id="filter0_d_9_51" x="34.8799" y="46.88" width="321.883" height="77.792" filterUnits="userSpaceOnUse" color-interpolation-filters="sRGB">
<feFlood flood-opacity="0" result="BackgroundImageFix"/>
<feColorMatrix in="SourceAlpha" type="matrix" values="0 0 0 0 0 0 0 0 0 0 0 0 0 0 0 0 0 0 127 0" result="hardAlpha"/>
<feOffset dy="4"/>
<feGaussianBlur stdDeviation="2"/>
<feComposite in2="hardAlpha" operator="out"/>
<feColorMatrix type="matrix" values="0 0 0 0 0 0 0 0 0 0 0 0 0 0 0 0 0 0 0.25 0"/>
<feBlend mode="normal" in2="BackgroundImageFix" result="effect1_dropShadow_9_51"/>
<feBlend mode="normal" in="SourceGraphic" in2="effect1_dropShadow_9_51" result="shape"/>
</filter>
<filter id="filter1_d_9_51" x="41.8799" y="177.88" width="321.883" height="77.792" filterUnits="userSpaceOnUse" color-interpolation-filters="sRGB">
<feFlood flood-opacity="0" result="BackgroundImageFix"/>
<feColorMatrix in="SourceAlpha" type="matrix" values="0 0 0 0 0 0 0 0 0 0 0 0 0 0 0 0 0 0 127 0" result="hardAlpha"/>
<feOffset dy="4"/>
<feGaussianBlur stdDeviation="2"/>
<feComposite in2="hardAlpha" operator="out"/>
<feColorMatrix type="matrix" values="0 0 0 0 0 0 0 0 0 0 0 0 0 0 0 0 0 0 0.25 0"/>
<feBlend mode="normal" in2="BackgroundImageFix" result="effect1_dropShadow_9_51"/>
<feBlend mode="normal" in="SourceGraphic" in2="effect1_dropShadow_9_51" result="shape"/>
</filter>
<clipPath id="clip0_9_51">
<rect width="400" height="401" fill="white"/>
</clipPath>
</defs>
</svg>
