<svg width="24" height="24" viewBox="0 0 24 24" fill="none" xmlns="http://www.w3.org/2000/svg">
<path d="M17 20.002L18.0014 20.0013C19.1054 20.0006 20 19.1054 20 18.0013V6.00353C20 4.89915 19.1049 4.00379 18.0005 4.00354L12.0295 4.00213L6.00391 4.00071C4.89949 4.00045 4.00392 4.89544 4.00344 5.99985L4 14M17 20.002H6.00287C4.89886 20.002 4.00366 19.1074 4.00287 18.0034L4 14M17 20.002L9.41021 11.5672C8.6437 10.7153 7.31958 10.6804 6.50928 11.4907L4 14M17 9.99998C17 11.1045 16.1046 12 15 12C13.8954 12 13 11.1045 13 9.99998C13 8.89541 13.8954 7.99998 15 7.99998C16.1046 7.99998 17 8.89541 17 9.99998Z" stroke="#09090B" stroke-linecap="round" stroke-linejoin="round"/>
</svg>
