<svg width="24" height="24" viewBox="0 0 24 24" fill="none" xmlns="http://www.w3.org/2000/svg">
<path fill-rule="evenodd" clip-rule="evenodd" d="M21 12.6299H18.77V9.26995C18.7682 9.06848 18.6895 8.87531 18.55 8.72995L12.55 2.72995C12.4023 2.5889 12.2041 2.51321 12 2.51995H9.41C7.09821 2.52544 5.2255 4.39815 5.22 6.70995V12.6299H3C2.58579 12.6299 2.25 12.9657 2.25 13.3799C2.25 13.7942 2.58579 14.1299 3 14.1299H21C21.4142 14.1299 21.75 13.7942 21.75 13.3799C21.75 12.9657 21.4142 12.6299 21 12.6299ZM12.75 5.08995L16.2 8.52995H13.71C13.1577 8.52995 12.71 8.08223 12.71 7.52995L12.75 5.08995ZM7.51722 4.80255C7.01808 5.31107 6.742 5.99744 6.75 6.70995L6.73 12.6299H17.25V10.0499H13.71C12.3426 10.0445 11.2355 8.93734 11.23 7.56995V3.99995H9.41C8.69746 4.00522 8.01636 4.29403 7.51722 4.80255Z" fill="black"/>
<path d="M6 14.6299C5.58579 14.6299 5.25 14.9657 5.25 15.3799V17.3799C5.25 17.7942 5.58579 18.1299 6 18.1299C6.41421 18.1299 6.75 17.7942 6.75 17.3799V15.3799C6.75 14.9657 6.41421 14.6299 6 14.6299Z" fill="black"/>
<path d="M18 14.6299C17.5858 14.6299 17.25 14.9657 17.25 15.3799V17.3799C17.25 17.7942 17.5858 18.1299 18 18.1299C18.4142 18.1299 18.75 17.7942 18.75 17.3799V15.3799C18.75 14.9657 18.4142 14.6299 18 14.6299Z" fill="black"/>
<path d="M14.75 18.1999V15.3799C14.75 14.9657 14.4142 14.6299 14 14.6299C13.5858 14.6299 13.25 14.9657 13.25 15.3799V18.3799C13.2514 18.4946 13.2788 18.6074 13.33 18.7099L14.33 20.7099C14.4572 20.9643 14.7157 21.1263 15 21.1299C15.1177 21.1274 15.2335 21.1001 15.34 21.0499C15.7049 20.8629 15.8518 20.4174 15.67 20.0499L14.75 18.1999Z" fill="black"/>
<path d="M10 14.6299C9.58579 14.6299 9.25 14.9657 9.25 15.3799V18.1999L8.33 19.9999C8.1496 20.3701 8.30137 20.8165 8.67 20.9999C8.84738 21.0894 9.05327 21.1037 9.24135 21.0398C9.42942 20.9758 9.58389 20.839 9.67 20.6599L10.67 18.6599C10.7212 18.5574 10.7486 18.4446 10.75 18.3299V15.3299C10.7236 14.9354 10.3954 14.6291 10 14.6299Z" fill="black"/>
</svg>
