<svg width="24" height="24" viewBox="0 0 24 24" fill="none" xmlns="http://www.w3.org/2000/svg">
<path d="M17.9535 18.7497C17.584 17.7633 15.0594 16 12 16C8.94061 16 6.41603 17.7633 6.04654 18.7497M17.9535 18.7497C19.8217 17.1006 21 14.6879 21 12C21 7.02944 16.9706 3 12 3C7.02944 3 3 7.02944 3 12C3 14.6879 4.1783 17.1006 6.04654 18.7497M17.9535 18.7497C16.3669 20.1502 14.2827 21 12 21C9.71732 21 7.63313 20.1502 6.04654 18.7497M15 10C15 11.6569 13.6569 13 12 13C10.3431 13 9 11.6569 9 10C9 8.34315 10.3431 7 12 7C13.6569 7 15 8.34315 15 10Z" stroke="#09090B"/>
</svg>
