{"asset":{"generator":"3D Builder","version":"2.0"},"scene":0,"scenes":[{"nodes":[0,1,2,3,4,5,6,7,8,9,10,11,12,13]}],"nodes":[{"mesh":0,"matrix":[1,0,0,0,0,-1.1920928955078125E-7,-0.99999988079071045,0,0,0.99999988079071045,-1.1920928955078125E-7,0,0,1.5574696063995361,-0.3532005250453949,1]},{"mesh":1,"matrix":[0.99999994039535522,0,0,0,0,-1.1920928244535389E-7,-0.99999982118606567,0,0,0.99999982118606567,-1.1920928244535389E-7,0,-0.2659514844417572,1.1608097553253174,0.55218714475631714,1]},{"mesh":2,"matrix":[0.99999994039535522,0,0,0,0,-1.1920928244535389E-7,-0.99999982118606567,0,0,0.99999982118606567,-1.1920928244535389E-7,0,-0.38917747139930725,1.2008095979690552,0.48849377036094666,1]},{"mesh":3,"matrix":[0.99999994039535522,0,0,0,0,-1.1920928244535389E-7,-0.99999982118606567,0,0,0.99999982118606567,-1.1920928244535389E-7,0,-0.17051307857036591,1.2008097171783447,0.57915210723876953,1]},{"mesh":4,"matrix":[0.99999994039535522,0,0,0,0,-1.1920928244535389E-7,-0.99999982118606567,0,0,0.99999982118606567,-1.1920928244535389E-7,0,0.14944735169410706,1.0048600435256958,0.57218712568283081,1]},{"mesh":5,"matrix":[0.99999994039535522,0,0,0,0,-1.1920928244535389E-7,-0.99999982118606567,0,0,0.99999982118606567,-1.1920928244535389E-7,0,0.10444735735654831,1.2008097171783447,0.5991520881652832,1]},{"mesh":6,"matrix":[0.99999994039535522,0,0,0,0,-1.1920928244535389E-7,-0.99999982118606567,0,0,0.99999982118606567,-1.1920928244535389E-7,0,0.276492178440094,1.2008097171783447,0.51928359270095825,1]},{"mesh":7,"matrix":[0.99999994039535522,0,0,0,0,-1.1920928244535389E-7,-0.99999982118606567,0,0,0.99999982118606567,-1.1920928244535389E-7,0,0.32296609878540039,1.2008095979690552,0.49928361177444458,1]},{"mesh":8,"matrix":[0.99999994039535522,0,0,0,0,-1.1920928244535389E-7,-0.99999982118606567,0,0,0.99999982118606567,-1.1920928244535389E-7,0,0.21527890861034393,1.2008097171783447,0.54545748233795166,1]},{"mesh":9,"matrix":[0.99999994039535522,0,0,0,0,-1.1920928244535389E-7,-0.99999982118606567,0,0,0.99999982118606567,-1.1920928244535389E-7,0,0.39602324366569519,1.2008095979690552,0.44849377870559692,1]},{"mesh":10,"matrix":[0.99999994039535522,0,0,0,0,-1.1920928244535389E-7,-0.99999982118606567,0,0,0.99999982118606567,-1.1920928244535389E-7,0,0.29649221897125244,1.1296710968017578,0.52849376201629639,1]},{"mesh":11,"matrix":[0.99999994039535522,0,0,0,0,-1.1920928244535389E-7,-0.99999982118606567,0,0,0.99999982118606567,-1.1920928244535389E-7,0,-0.43417751789093018,1.2008095979690552,0.44849377870559692,1]},{"mesh":12,"matrix":[0.99999994039535522,0,0,0,0,-1.1920928244535389E-7,-0.99999982118606567,0,0,0.99999982118606567,-1.1920928244535389E-7,0,-0.06477268785238266,1.2208098173141479,0.69220459461212158,1]},{"mesh":13,"matrix":[0.99999994039535522,0,0,0,0,-1.1920928244535389E-7,-0.99999982118606567,0,0,0.99999982118606567,-1.1920928244535389E-7,0,-0.13051304221153259,1.0448600053787231,0.61218708753585815,1]}],"meshes":[{"primitives":[{"attributes":{"POSITION":0},"mode":4,"indices":1,"material":0}]},{"primitives":[{"attributes":{"POSITION":2,"COLOR_0":3},"mode":4,"indices":4}]},{"primitives":[{"attributes":{"POSITION":5,"COLOR_0":6},"mode":4,"indices":7}]},{"primitives":[{"attributes":{"POSITION":8,"COLOR_0":9},"mode":4,"indices":10}]},{"primitives":[{"attributes":{"POSITION":11,"COLOR_0":12},"mode":4,"indices":13}]},{"primitives":[{"attributes":{"POSITION":14,"COLOR_0":15},"mode":4,"indices":16}]},{"primitives":[{"attributes":{"POSITION":17,"COLOR_0":18},"mode":4,"indices":19}]},{"primitives":[{"attributes":{"POSITION":20,"COLOR_0":21},"mode":4,"indices":22}]},{"primitives":[{"attributes":{"POSITION":23,"COLOR_0":24},"mode":4,"indices":25}]},{"primitives":[{"attributes":{"POSITION":26,"COLOR_0":27},"mode":4,"indices":28}]},{"primitives":[{"attributes":{"POSITION":29,"COLOR_0":30},"mode":4,"indices":31}]},{"primitives":[{"attributes":{"POSITION":32,"COLOR_0":33},"mode":4,"indices":34}]},{"primitives":[{"attributes":{"POSITION":35,"COLOR_0":36},"mode":4,"indices":37}]},{"primitives":[{"attributes":{"POSITION":38,"COLOR_0":39},"mode":4,"indices":40}]}],"materials":[{"name":"material_0","pbrMetallicRoughness":{"baseColorFactor":[1,1,1,1],"metallicFactor":0,"roughnessFactor":0.60000002384185791},"alphaMode":"OPAQUE"}],"accessors":[{"bufferView":0,"byteOffset":0,"count":1615,"componentType":5126,"type":"VEC3","min":[-0.542015016078949,-1.154133677482605,-1.5574698448181152],"max":[0.542015016078949,0.44773295521736145,0.61634284257888794]},{"bufferView":1,"byteOffset":0,"count":9678,"componentType":5125,"type":"SCALAR"},{"bufferView":2,"byteOffset":0,"count":2562,"componentType":5126,"type":"VEC3","min":[9.1197005531284958E-5,0.00025229901075363159,-0.010000000707805157],"max":[0.040091205388307571,0.040252301841974258,0.030000001192092896]},{"bufferView":3,"byteOffset":0,"count":2562,"componentType":5121,"type":"VEC4","normalized":true},{"bufferView":4,"byteOffset":0,"count":15360,"componentType":5125,"type":"SCALAR"},{"bufferView":5,"byteOffset":0,"count":2562,"componentType":5126,"type":"VEC3","min":[9.1197005531284958E-5,0.00025229901075363159,-0.010000000707805157],"max":[0.040091205388307571,0.040252301841974258,0.030000001192092896]},{"bufferView":6,"byteOffset":0,"count":2562,"componentType":5121,"type":"VEC4","normalized":true},{"bufferView":7,"byteOffset":0,"count":15360,"componentType":5125,"type":"SCALAR"},{"bufferView":8,"byteOffset":0,"count":2562,"componentType":5126,"type":"VEC3","min":[9.1197005531284958E-5,0.00025229901075363159,-0.010000000707805157],"max":[0.040091205388307571,0.040252301841974258,0.030000001192092896]},{"bufferView":9,"byteOffset":0,"count":2562,"componentType":5121,"type":"VEC4","normalized":true},{"bufferView":10,"byteOffset":0,"count":15360,"componentType":5125,"type":"SCALAR"},{"bufferView":11,"byteOffset":0,"count":2562,"componentType":5126,"type":"VEC3","min":[9.1197005531284958E-5,0.00025229901075363159,-0.010000000707805157],"max":[0.040091205388307571,0.040252301841974258,0.030000001192092896]},{"bufferView":12,"byteOffset":0,"count":2562,"componentType":5121,"type":"VEC4","normalized":true},{"bufferView":13,"byteOffset":0,"count":15360,"componentType":5125,"type":"SCALAR"},{"bufferView":14,"byteOffset":0,"count":2562,"componentType":5126,"type":"VEC3","min":[9.1197005531284958E-5,0.00025229901075363159,-0.010000000707805157],"max":[0.040091205388307571,0.040252301841974258,0.030000001192092896]},{"bufferView":15,"byteOffset":0,"count":2562,"componentType":5121,"type":"VEC4","normalized":true},{"bufferView":16,"byteOffset":0,"count":15360,"componentType":5125,"type":"SCALAR"},{"bufferView":17,"byteOffset":0,"count":2562,"componentType":5126,"type":"VEC3","min":[9.1197005531284958E-5,0.00025229901075363159,-0.010000000707805157],"max":[0.040091205388307571,0.040252301841974258,0.030000001192092896]},{"bufferView":18,"byteOffset":0,"count":2562,"componentType":5121,"type":"VEC4","normalized":true},{"bufferView":19,"byteOffset":0,"count":15360,"componentType":5125,"type":"SCALAR"},{"bufferView":20,"byteOffset":0,"count":2562,"componentType":5126,"type":"VEC3","min":[9.1197005531284958E-5,0.00025229901075363159,-0.010000000707805157],"max":[0.040091205388307571,0.040252301841974258,0.030000001192092896]},{"bufferView":21,"byteOffset":0,"count":2562,"componentType":5121,"type":"VEC4","normalized":true},{"bufferView":22,"byteOffset":0,"count":15360,"componentType":5125,"type":"SCALAR"},{"bufferView":23,"byteOffset":0,"count":2562,"componentType":5126,"type":"VEC3","min":[9.1197005531284958E-5,0.00025229901075363159,-0.010000000707805157],"max":[0.040091205388307571,0.040252301841974258,0.030000001192092896]},{"bufferView":24,"byteOffset":0,"count":2562,"componentType":5121,"type":"VEC4","normalized":true},{"bufferView":25,"byteOffset":0,"count":15360,"componentType":5125,"type":"SCALAR"},{"bufferView":26,"byteOffset":0,"count":2562,"componentType":5126,"type":"VEC3","min":[9.1197005531284958E-5,0.00025229901075363159,-0.010000000707805157],"max":[0.040091205388307571,0.040252301841974258,0.030000001192092896]},{"bufferView":27,"byteOffset":0,"count":2562,"componentType":5121,"type":"VEC4","normalized":true},{"bufferView":28,"byteOffset":0,"count":15360,"componentType":5125,"type":"SCALAR"},{"bufferView":29,"byteOffset":0,"count":2562,"componentType":5126,"type":"VEC3","min":[9.1197005531284958E-5,0.00025229901075363159,-0.010000000707805157],"max":[0.040091205388307571,0.040252301841974258,0.030000001192092896]},{"bufferView":30,"byteOffset":0,"count":2562,"componentType":5121,"type":"VEC4","normalized":true},{"bufferView":31,"byteOffset":0,"count":15360,"componentType":5125,"type":"SCALAR"},{"bufferView":32,"byteOffset":0,"count":2562,"componentType":5126,"type":"VEC3","min":[9.1197005531284958E-5,0.00025229901075363159,-0.010000000707805157],"max":[0.040091205388307571,0.040252301841974258,0.030000001192092896]},{"bufferView":33,"byteOffset":0,"count":2562,"componentType":5121,"type":"VEC4","normalized":true},{"bufferView":34,"byteOffset":0,"count":15360,"componentType":5125,"type":"SCALAR"},{"bufferView":35,"byteOffset":0,"count":2562,"componentType":5126,"type":"VEC3","min":[9.1197005531284958E-5,0.00025229901075363159,-0.010000000707805157],"max":[0.040091205388307571,0.040252301841974258,0.030000001192092896]},{"bufferView":36,"byteOffset":0,"count":2562,"componentType":5121,"type":"VEC4","normalized":true},{"bufferView":37,"byteOffset":0,"count":15360,"componentType":5125,"type":"SCALAR"},{"bufferView":38,"byteOffset":0,"count":2562,"componentType":5126,"type":"VEC3","min":[9.1197005531284958E-5,0.00025229901075363159,-0.010000000707805157],"max":[0.040091205388307571,0.040252301841974258,0.030000001192092896]},{"bufferView":39,"byteOffset":0,"count":2562,"componentType":5121,"type":"VEC4","normalized":true},{"bufferView":40,"byteOffset":0,"count":15360,"componentType":5125,"type":"SCALAR"}],"bufferViews":[{"buffer":0,"byteOffset":0,"byteLength":19380,"byteStride":12,"target":34962},{"buffer":0,"byteOffset":19380,"byteLength":38712,"target":34963},{"buffer":0,"byteOffset":58092,"byteLength":30744,"byteStride":12,"target":34962},{"buffer":0,"byteOffset":88836,"byteLength":10248,"byteStride":4,"target":34962},{"buffer":0,"byteOffset":99084,"byteLength":61440,"target":34963},{"buffer":0,"byteOffset":160524,"byteLength":30744,"byteStride":12,"target":34962},{"buffer":0,"byteOffset":191268,"byteLength":10248,"byteStride":4,"target":34962},{"buffer":0,"byteOffset":201516,"byteLength":61440,"target":34963},{"buffer":0,"byteOffset":262956,"byteLength":30744,"byteStride":12,"target":34962},{"buffer":0,"byteOffset":293700,"byteLength":10248,"byteStride":4,"target":34962},{"buffer":0,"byteOffset":303948,"byteLength":61440,"target":34963},{"buffer":0,"byteOffset":365388,"byteLength":30744,"byteStride":12,"target":34962},{"buffer":0,"byteOffset":396132,"byteLength":10248,"byteStride":4,"target":34962},{"buffer":0,"byteOffset":406380,"byteLength":61440,"target":34963},{"buffer":0,"byteOffset":467820,"byteLength":30744,"byteStride":12,"target":34962},{"buffer":0,"byteOffset":498564,"byteLength":10248,"byteStride":4,"target":34962},{"buffer":0,"byteOffset":508812,"byteLength":61440,"target":34963},{"buffer":0,"byteOffset":570252,"byteLength":30744,"byteStride":12,"target":34962},{"buffer":0,"byteOffset":600996,"byteLength":10248,"byteStride":4,"target":34962},{"buffer":0,"byteOffset":611244,"byteLength":61440,"target":34963},{"buffer":0,"byteOffset":672684,"byteLength":30744,"byteStride":12,"target":34962},{"buffer":0,"byteOffset":703428,"byteLength":10248,"byteStride":4,"target":34962},{"buffer":0,"byteOffset":713676,"byteLength":61440,"target":34963},{"buffer":0,"byteOffset":775116,"byteLength":30744,"byteStride":12,"target":34962},{"buffer":0,"byteOffset":805860,"byteLength":10248,"byteStride":4,"target":34962},{"buffer":0,"byteOffset":816108,"byteLength":61440,"target":34963},{"buffer":0,"byteOffset":877548,"byteLength":30744,"byteStride":12,"target":34962},{"buffer":0,"byteOffset":908292,"byteLength":10248,"byteStride":4,"target":34962},{"buffer":0,"byteOffset":918540,"byteLength":61440,"target":34963},{"buffer":0,"byteOffset":979980,"byteLength":30744,"byteStride":12,"target":34962},{"buffer":0,"byteOffset":1010724,"byteLength":10248,"byteStride":4,"target":34962},{"buffer":0,"byteOffset":1020972,"byteLength":61440,"target":34963},{"buffer":0,"byteOffset":1082412,"byteLength":30744,"byteStride":12,"target":34962},{"buffer":0,"byteOffset":1113156,"byteLength":10248,"byteStride":4,"target":34962},{"buffer":0,"byteOffset":1123404,"byteLength":61440,"target":34963},{"buffer":0,"byteOffset":1184844,"byteLength":30744,"byteStride":12,"target":34962},{"buffer":0,"byteOffset":1215588,"byteLength":10248,"byteStride":4,"target":34962},{"buffer":0,"byteOffset":1225836,"byteLength":61440,"target":34963},{"buffer":0,"byteOffset":1287276,"byteLength":30744,"byteStride":12,"target":34962},{"buffer":0,"byteOffset":1318020,"byteLength":10248,"byteStride":4,"target":34962},{"buffer":0,"byteOffset":1328268,"byteLength":61440,"target":34963}],"buffers":[{"byteLength":1389708,"uri":"pimps-face.bin"}]}